<svg width="192" height="96" viewBox="0 0 192 96" fill="none" xmlns="http://www.w3.org/2000/svg">
  <defs>
    <linearGradient id="whiteGradient" x1="0%" y1="0%" x2="100%" y2="100%">
      <stop offset="0%" style="stop-color:#ffffff;stop-opacity:1" />
      <stop offset="50%" style="stop-color:#f8f9fa;stop-opacity:1" />
      <stop offset="100%" style="stop-color:#ffffff;stop-opacity:1" />
    </linearGradient>
  </defs>
  
  <!-- A -->
  <path d="M8 84 L24 24 L36 24 L52 84 L40 84 L38 72 L22 72 L20 84 Z M26 60 L34 60 L30 44 Z" fill="url(#whiteGradient)" stroke="url(#whiteGradient)" stroke-width="1"/>
  
  <!-- i -->
  <path d="M64 30 L76 30 L76 84 L64 84 Z M64 18 L76 18 L76 26 L64 26 Z" fill="url(#whiteGradient)" stroke="url(#whiteGradient)" stroke-width="1"/>
  
  <!-- Q -->
  <path d="M88 24 C104 24 116 36 116 54 C116 66 110 74 102 78 L112 84 L102 84 L94 78 C92 79 89 80 86 80 C98 80 88 24 88 24 Z M88 32 C94 32 100 32 106 38 C110 42 110 48 110 54 C110 60 110 66 106 68 C102 72 96 72 92 72 L88 72 C82 72 76 66 76 54 C76 42 82 32 88 32 Z" fill="url(#whiteGradient)" stroke="url(#whiteGradient)" stroke-width="1"/>
  
  <!-- Decorative swoosh -->
  <path d="M124 48 C130 42 138 44 144 48 C150 50 156 54 162 48 C168 42 174 44 180 50 C183 54 186 60 180 66 C174 72 168 68 162 66 C156 62 150 60 144 66 C138 72 132 68 126 62 C123 58 120 54 124 48 Z" fill="url(#whiteGradient)" opacity="0.8"/>
</svg>