<svg width="64" height="32" viewBox="0 0 64 32" fill="none" xmlns="http://www.w3.org/2000/svg">
  <defs>
    <linearGradient id="logoGradient" x1="0%" y1="0%" x2="100%" y2="100%">
      <stop offset="0%" style="stop-color:#3250fa;stop-opacity:1" />
      <stop offset="50%" style="stop-color:#00f0ff;stop-opacity:1" />
      <stop offset="100%" style="stop-color:#ff538f;stop-opacity:1" />
    </linearGradient>
  </defs>
  
  <!-- A -->
  <path d="M2 28 L8 8 L12 8 L18 28 L14 28 L13 24 L7 24 L6 28 Z M8.5 20 L11.5 20 L10 15 Z" fill="url(#logoGradient)" stroke="url(#logoGradient)" stroke-width="0.5"/>
  
  <!-- i -->
  <path d="M22 10 L26 10 L26 28 L22 28 Z M22 6 L26 6 L26 9 L22 9 Z" fill="url(#logoGradient)" stroke="url(#logoGradient)" stroke-width="0.5"/>
  
  <!-- Q -->
  <path d="M30 8 C36 8 40 12 40 18 C40 22 38 25 35 26.5 L38 28 L35 28 L32.5 26.2 C31.5 26.7 30.3 27 29 27 C34 27 30 8 30 8 Z M30 11 C32 11 34 11 36 13 C37 14 37 16 37 18 C37 20 37 22 36 23 C35 24 33 24 32 24 L30 24 C28 24 26 22 26 18 C26 14 28 11 30 11 Z" fill="url(#logoGradient)" stroke="url(#logoGradient)" stroke-width="0.5"/>
  
  <!-- Decorative swoosh -->
  <path d="M42 16 C44 14 46 15 48 16 C50 17 52 18 54 16 C56 14 58 15 60 17 C61 18 62 20 60 22 C58 24 56 23 54 22 C52 21 50 20 48 22 C46 24 44 23 42 21 C41 20 40 18 42 16 Z" fill="url(#logoGradient)" opacity="0.6"/>
</svg>