<svg width="120" height="120" viewBox="0 0 120 120" fill="none" xmlns="http://www.w3.org/2000/svg">
  <defs>
    <linearGradient id="arrowGradient" x1="0%" y1="0%" x2="100%" y2="100%">
      <stop offset="0%" style="stop-color:#00f0ff;stop-opacity:1" />
      <stop offset="100%" style="stop-color:#3250fa;stop-opacity:1" />
    </linearGradient>
    <linearGradient id="personGradient" x1="0%" y1="0%" x2="100%" y2="100%">
      <stop offset="0%" style="stop-color:#3250fa;stop-opacity:1" />
      <stop offset="100%" style="stop-color:#ff538f;stop-opacity:1" />
    </linearGradient>
  </defs>
  
  <!-- Black background to match original -->
  <rect width="120" height="120" fill="#000000"/>
  
  <!-- Large cyan pencil/arrow pointing up and right -->
  <path d="M10 100 L35 75 L60 50 L85 25 L90 30 L87 33 L62 58 L37 83 L12 108 Z" fill="#00f0ff" opacity="0.9"/>
  
  <!-- Pencil tip -->
  <path d="M80 20 L85 25 L90 30 L87 33 L82 28 Z" fill="#00f0ff"/>
  
  <!-- Pencil body details -->
  <line x1="15" y1="95" x2="80" y2="30" stroke="#000000" stroke-width="2"/>
  <line x1="18" y1="92" x2="83" y2="27" stroke="#000000" stroke-width="2"/>
  
  <!-- Dark diagonal surface for person to sit on -->
  <rect x="30" y="40" width="45" height="8" rx="4" fill="#2d3748" transform="rotate(45 52.5 44)"/>
  
  <!-- Person sitting on pencil -->
  <g transform="translate(60, 45) rotate(45)">
    <!-- Head -->
    <circle cx="0" cy="-8" r="5" fill="#ffffff"/>
    
    <!-- Hair -->
    <path d="M-4 -11 Q0 -13 4 -11 Q2 -8 0 -8 Q-2 -8 -4 -11" fill="#1e2a4a"/>
    
    <!-- Blue glasses -->
    <ellipse cx="-2" cy="-8" rx="1.5" ry="1" fill="none" stroke="#3250fa" stroke-width="1"/>
    <ellipse cx="2" cy="-8" rx="1.5" ry="1" fill="none" stroke="#3250fa" stroke-width="1"/>
    <line x1="0" y1="-8" x2="0" y2="-8" stroke="#3250fa" stroke-width="1"/>
    
    <!-- Body -->
    <rect x="-3" y="-3" width="6" height="8" rx="3" fill="#3250fa"/>
    
    <!-- Arms -->
    <rect x="-7" y="-1" width="4" height="2" rx="1" fill="#ffffff"/>
    <rect x="3" y="-1" width="8" height="2" rx="1" fill="#ffffff"/>
    
    <!-- Laptop -->
    <rect x="8" y="-3" width="7" height="4" rx="1" fill="#1a202c"/>
    <rect x="8.5" y="-2.5" width="6" height="3" rx="0.5" fill="#2d3748"/>
    <line x1="9" y1="-2" x2="14" y2="-2" stroke="#00f0ff" stroke-width="0.3"/>
    <line x1="9" y1="-1.5" x2="12" y2="-1.5" stroke="#00f0ff" stroke-width="0.3"/>
    <line x1="9" y1="-1" x2="11" y2="-1" stroke="#00f0ff" stroke-width="0.3"/>
    
    <!-- Legs -->
    <rect x="-2" y="5" width="2" height="6" rx="1" fill="#ffffff"/>
    <rect x="0" y="5" width="2" height="6" rx="1" fill="#ffffff"/>
  </g>
  
  <!-- White triangular accent at bottom -->
  <path d="M15 100 L30 95 L15 110 Z" fill="#ffffff"/>
  
  <!-- Small decorative elements -->
  <circle cx="25" cy="25" r="1" fill="#00f0ff" opacity="0.7"/>
  <circle cx="35" cy="20" r="1.5" fill="#00f0ff" opacity="0.8"/>
</svg>