<svg width="120" height="120" viewBox="0 0 120 120" fill="none" xmlns="http://www.w3.org/2000/svg">
  <defs>
    <linearGradient id="arrowGradient" x1="0%" y1="0%" x2="100%" y2="100%">
      <stop offset="0%" style="stop-color:#00f0ff;stop-opacity:1" />
      <stop offset="100%" style="stop-color:#3250fa;stop-opacity:1" />
    </linearGradient>
    <linearGradient id="personGradient" x1="0%" y1="0%" x2="100%" y2="100%">
      <stop offset="0%" style="stop-color:#3250fa;stop-opacity:1" />
      <stop offset="100%" style="stop-color:#ff538f;stop-opacity:1" />
    </linearGradient>
  </defs>
  
  <!-- Black background to match original -->
  <rect width="120" height="120" fill="#000000"/>
  
  <!-- Large cyan arrow pointing up and right -->
  <path d="M15 90 L40 65 L65 40 L80 25 L85 30 L70 45 L45 70 L20 95 Z" fill="#00f0ff" opacity="0.9"/>
  
  <!-- Arrow decorative elements -->
  <path d="M20 85 L15 90 L25 95 Z" fill="#00f0ff"/>
  <path d="M75 20 L80 25 L85 30 L80 35 L75 30 Z" fill="#00f0ff"/>
  
  <!-- Dark diagonal bar behind person -->
  <rect x="40" y="30" width="60" height="12" rx="6" fill="#2d3748" transform="rotate(30 70 36)"/>
  
  <!-- Person figure on laptop -->
  <g transform="translate(70, 35)">
    <!-- Head -->
    <circle cx="8" cy="8" r="6" fill="#ffffff"/>
    
    <!-- Hair -->
    <path d="M2 5 Q8 0 14 5 Q12 8 8 8 Q4 8 2 5" fill="#1e2a4a"/>
    
    <!-- Glasses -->
    <ellipse cx="6" cy="7" rx="2" ry="1.5" fill="none" stroke="#3250fa" stroke-width="1"/>
    <ellipse cx="10" cy="7" rx="2" ry="1.5" fill="none" stroke="#3250fa" stroke-width="1"/>
    <line x1="8" y1="7" x2="8" y2="7" stroke="#3250fa" stroke-width="1"/>
    
    <!-- Body -->
    <rect x="4" y="14" width="8" height="12" rx="4" fill="#3250fa"/>
    
    <!-- Arms -->
    <rect x="0" y="16" width="6" height="3" rx="1.5" fill="#ffffff"/>
    <rect x="10" y="16" width="10" height="3" rx="1.5" fill="#ffffff"/>
    
    <!-- Laptop -->
    <rect x="15" y="14" width="10" height="6" rx="1" fill="#1a202c"/>
    <rect x="16" y="15" width="8" height="4" rx="0.5" fill="#2d3748"/>
    <line x1="17" y1="16" x2="23" y2="16" stroke="#00f0ff" stroke-width="0.5"/>
    <line x1="17" y1="17" x2="21" y2="17" stroke="#00f0ff" stroke-width="0.5"/>
    <line x1="17" y1="18" x2="19" y2="18" stroke="#00f0ff" stroke-width="0.5"/>
    
    <!-- Legs -->
    <rect x="5" y="26" width="3" height="8" rx="1.5" fill="#ffffff"/>
    <rect x="8" y="26" width="3" height="8" rx="1.5" fill="#ffffff"/>
  </g>
  
  <!-- White triangular accent at bottom -->
  <path d="M15 100 L30 95 L15 110 Z" fill="#ffffff"/>
  
  <!-- Small decorative elements -->
  <circle cx="25" cy="25" r="1" fill="#00f0ff" opacity="0.7"/>
  <circle cx="35" cy="20" r="1.5" fill="#00f0ff" opacity="0.8"/>
</svg>